<svg id="Capa_1" data-name="Capa 1" xmlns="http://www.w3.org/2000/svg" viewBox="0 0 490.019 727.754">
  <defs>
    <style>
      .cls-1, .cls-2, .cls-3 {
        fill: none;
        stroke: #040506;
        stroke-miterlimit: 10;
      }

      .cls-1 {
        stroke-width: 0.75px;
      }

      .cls-2 {
        stroke-width: 0.5px;
      }
    </style>
  </defs>
  <title>imag</title>
  <g id="_Group_" data-name="&lt;Group&gt;">
    <path id="_Path_" data-name="&lt;Path&gt;" class="cls-1" d="M412.932,221.2c8.69-12.491,27.456-22.3,42.676-18.4,5.473,1.4,10.367,4.522,15.919,5.608,9.461,1.852,24.642-4.361,28.708,3.96,3.722,7.615,5.007,16.066,6.251,24.378l2.9,19.4c.793,5.3,1.587,10.64,1.211,15.979a126.771,126.771,0,0,0-.386,12.878c-7.039,10.492-21.306,12.588-31.652,20.22-15.071,11.117-22.3,31-17.657,48.574,1.463,5.542,3.973,10.777,6.47,15.975,4.116,8.569,4.831,16.925,8.955,25.49,3.454,7.174,10.172,16.291,5.242,22.639-5.648,7.274-16.125,11.769-24.9,8.272-1.015-.4-1.984-.912-3.021-1.262-4.056-1.367-8.51-.163-12.657.932-5.941,1.568-12.287,2.9-18.2,1.242s-11.014-7.34-9.634-13.047" transform="translate(-50.449 -51.246)"/>
    <path id="_Path_2" data-name="&lt;Path&gt;" class="cls-1" d="M510.214,285.012c-4.423,6.908-8.507,17.47-7.795,25.525" transform="translate(-50.449 -51.246)"/>
    <path id="_Path_3" data-name="&lt;Path&gt;" class="cls-1" d="M454.287,446.068a11.34,11.34,0,0,0,4.376-1.261l11.574-5.12a33.852,33.852,0,0,1-9.5,12.11c-1.145.922-2.415,1.856-2.877,3.212-.437,1.282-.058,2.666.1,4.006.583,5-2.112,9.971-6.043,13.336s-8.966,5.335-14.032,6.791a31.419,31.419,0,0,1-10.9,1.55c-4.427-.325-8.549-2.172-12.556-3.988-7.473-3.388-9.107-7.8-16.581-11.186-.062-.745-5.964-5.146-6.026-5.89" transform="translate(-50.449 -51.246)"/>
    <path id="_Path_4" data-name="&lt;Path&gt;" class="cls-1" d="M391.818,459.628c5.513,1.525,18.924.85,24.629,1.182A65.328,65.328,0,0,0,437.2,457.9c5-1.639,15.931-.623,20.655-2.895.36-.173-.274.278,0,0s.35,3.709.1,4.006" transform="translate(-50.449 -51.246)"/>
    <path id="_Path_5" data-name="&lt;Path&gt;" class="cls-1" d="M467.93,440.615c-2.4-.324-4.2,1.892-6.3,3.024a45.407,45.407,0,0,1-12.992,4.465c-5.2,1.107-23.034-.048-27.856,2.1.22-.249-26.084,9.665-25.864,9.416" transform="translate(-50.449 -51.246)"/>
    <path id="_Path_6" data-name="&lt;Path&gt;" class="cls-1" d="M448.552,430.213c-1.947,4.158.921,13.518,4.014,16.993" transform="translate(-50.449 -51.246)"/>
    <path id="_Path_7" data-name="&lt;Path&gt;" class="cls-1" d="M340.816,501.073c19.957,5.059,37.636,19.335,58.273,18.523,11.772-.463,22.615-5.871,33-11.155,2.992-1.522,6.063-3.106,8.22-5.594,2.457-2.834,3.459-6.526,4.394-10.089l4.318-16.452" transform="translate(-50.449 -51.246)"/>
    <path id="_Path_8" data-name="&lt;Path&gt;" class="cls-1" d="M508.382,221.627c-.486-15.9,6.776-30.967,10.7-46.436s3.554-33.981-8.905-44.62c-11.29-9.641-28.7-9.563-41.237-17.7-10.309-6.7-15.987-18.022-24.265-26.9-18.31-19.646-47.491-25.8-74.712-30.288-15.347-2.532-30.9-4.888-46.435-3.771C293.37,54.075,266.114,69,240.048,83.56c-13.825,7.722-27.763,15.523-39.6,25.8-36.644,31.83-47.5,81.435-63.084,126.21-14.08,40.446-33.67,80.324-34.509,122.915-.42,21.293,3.911,42.374,6.489,63.53,9.617,78.906-5.717,160.4-43.514,231.265-5.636,10.566-11.84,21.124-14.065,32.778-5.067,26.541,11.178,52.1,26.725,74.677,1.785,2.591,4.125,5.481,7.386,5.448s4.878-5.571,1.642-5.954" transform="translate(-50.449 -51.246)"/>
    <path id="_Path_9" data-name="&lt;Path&gt;" class="cls-1" d="M118.76,751.509c-27.377-2.294-42.241-33.87-38.1-59.669s20.612-48.054,31.353-72.074c40.352-90.238-2.812-194.506,12.331-291.481,4.612-29.534,14.616-58.045,25.146-86.178,11.922-31.853,24.737-63.756,44.31-91.994s46.616-52.854,80-64.589c19.937-7.007,41.343-9.208,62.525-10.927,19.7-1.6,40.6-2.616,58.129,6.064,15.362,7.606,26.059,21.7,40.681,30.524,11.777,7.106,25.844,10.633,36.677,18.983,18.783,14.477,13.587,59.427-.283,78.247-24.432-15.231-44.712-4.209-61.841,16.54-23.1,27.983-34.331,64.553-30.69,99.939,2.447,23.786,11.279,47.774,5.539,71.043-8.544,34.637-47.858,60.744-44.446,96.17,1.656,17.193,13.406,31.838,19.455,48.12,6.775,18.237,6.242,38.1,5.314,57.416-1.165,24.239,5.454,111.491-19.363,123.89C310.529,658.925,294.613,565.1,312.509,496.1c12.889-49.689,44.706-95.551,44.767-146.725.019-15.655-2.993-31.193-3.256-46.846-1.045-62.286,61.04-127.681,124.474-143.571" transform="translate(-50.449 -51.246)"/>
    <path id="_Path_10" data-name="&lt;Path&gt;" class="cls-1" d="M424.962,109.448C325.766,130.954,287.9,244.429,276.039,309.46c-2.213,12.134-4.321,24.324-8.014,36.13-3.722,11.9-9.022,23.3-13.1,35.1-13.184,38.153-13.2,79.122-12.941,119.276q.328,50.552.974,101.1c.364,28.486,5.824,49.633,25.918,70.6,7.552,7.879,13.308,12.048,18.042,22.228,4.751,10.215,3.354,24.282,16.6,29.162" transform="translate(-50.449 -51.246)"/>
    <path id="_Path_11" data-name="&lt;Path&gt;" class="cls-2" d="M154.316,779l.046-261.037c.009-53.776.192-108.625,17.912-159.7,11.99-34.557,65.146-193.128,104.8-206.225" transform="translate(-50.449 -51.246)"/>
    <path id="_Path_12" data-name="&lt;Path&gt;" class="cls-1" d="M261.292,754.624c-65.706-34.22-58.911-98.843-39.7-129.828,2.45-3.952-3.416-65.262,7.593-174.69,1.34-13.321,8.911-27.907,9.462-41.278.486-11.809,3.329-23.4,6.16-34.911L276.1,246.686c7.4-30.075,32.791-101.752,104.9-125.9" transform="translate(-50.449 -51.246)"/>
    <path id="_Path_13" data-name="&lt;Path&gt;" class="cls-1" d="M401.308,85.2" transform="translate(-50.449 -51.246)"/>
    <path id="_Path_14" data-name="&lt;Path&gt;" class="cls-1" d="M414.987,99.532c-41.915-9.232-80.617-1.518-121.924,7.513-14.592,3.19-29.346,6.778-42.215,14.046-25.411,14.351-39.988,40.829-52.32,66.344C177.86,230.2,159.762,274.384,149.948,320.5c-10.169,47.791-11.287,96.863-11.466,145.62-.229,62.523,1.016,125.265-6.893,187.336-3.329,26.129-8.228,53-.993,78.411,4.394-4.366,9.646,25.052,8.4,19.129" transform="translate(-50.449 -51.246)"/>
    <path id="_Path_15" data-name="&lt;Path&gt;" class="cls-1" d="M447.917,117.6C371.646,95.846,278.546,304.772,277.078,387.036c-.615,34.475-.651,72.635-.666,107.106-.025,57.308-22.964,112.53-51.976,162.783" transform="translate(-50.449 -51.246)"/>
    <path id="_Path_16" data-name="&lt;Path&gt;" class="cls-1" d="M502,322.257c-1.19,6.11-.053,10.232-.258,16.443-.6,18.186-.914,36.724-7.079,53.951a108.783,108.783,0,0,1-8.458,17.808c-.294.508-.81,1.1-1.381.894s.333-1.168.388-.59" transform="translate(-50.449 -51.246)"/>
    <path id="_Path_17" data-name="&lt;Path&gt;" class="cls-1" d="M414.475,410.49" transform="translate(-50.449 -51.246)"/>
    <path id="_Path_18" data-name="&lt;Path&gt;" class="cls-3" d="M464.378,337.249c8.728,3.018,18.49.125,26.742-3.924,3.535-1.735,7.092-3.808,9.171-7.03,3.6-5.577,2.318-16.914,2.129-15.757" transform="translate(-50.449 -51.246)"/>
    <path id="_Path_19" data-name="&lt;Path&gt;" class="cls-1" d="M471.811,130.168c-49.962,2.464-108.956,52.109-130.995,94.756s-38.321,81.887-39.3,129.382,1.074,95.518-9.321,141.986c-3.356,15-7.991,29.731-11.009,44.8a215.722,215.722,0,0,0,16.432,133.589c11.036,23.434,26.725,46.994,23.815,72.516" transform="translate(-50.449 -51.246)"/>
    <path id="_Path_20" data-name="&lt;Path&gt;" class="cls-1" d="M424.962,103.919c-47.543.083-120.535,18.46-160.972,42.2-12.575,7.383-24.594,15.893-34.113,26.635-9.13,10.3-15.728,22.384-21.8,34.549-19.493,39.031-81.221,189.529-61.506,417.492" transform="translate(-50.449 -51.246)"/>
    <path id="_Path_21" data-name="&lt;Path&gt;" class="cls-1" d="M400.266,109.448c-93.734,15.506-138.97,85.934-143.651,97.272-26.293,63.687-31.865,134.027-40.875,202.156-2.33,17.619-4.352,35.306-4.657,53.06-.375,21.816,1.845,43.654.548,65.439-3.185,53.509-27.408,107.047-14.211,159.156,7.33,28.943,25.6,54.172,44.413,77.988,1.349,1.708,2.761,3.947,1.693,5.826s-5.176.1-3.6-1.419" transform="translate(-50.449 -51.246)"/>
    <path id="_Path_22" data-name="&lt;Path&gt;" class="cls-2" d="M320.54,130.168C208.341,176,177.028,462.9,174.5,539.55l-3.342,101.542c-1.4,42.391-2.611,85.943,12.34,125.909" transform="translate(-50.449 -51.246)"/>
    <path id="_Path_23" data-name="&lt;Path&gt;" class="cls-1" d="M320.621,532.276c-.891,13.743,5.768,26.748,10.9,39.624A191.858,191.858,0,0,1,341.8,678.573" transform="translate(-50.449 -51.246)"/>
    <path id="_Path_24" data-name="&lt;Path&gt;" class="cls-1" d="M470.637,438.815c-1.327-4.1,1.44-8.359,4.583-11.434s6.936-5.862,8.432-9.906c1.081-2.922.91-6.387,3.04-8.733" transform="translate(-50.449 -51.246)"/>
    <path id="_Path_25" data-name="&lt;Path&gt;" class="cls-1" d="M381,516.47c-9.52,17.747-11.248,59.043,0,75.853,0-1.183,7.91,20.159,7.91,18.976,0,1.774,2.909,11.723,2.909,13.5" transform="translate(-50.449 -51.246)"/>
    <path id="_Path_26" data-name="&lt;Path&gt;" class="cls-1" d="M507.9,219.4a91.45,91.45,0,0,1,17.356,68.685c-3.793,23.909-17.136,45.7-21.2,69.564-6.823,40.035,12.253,79.691,4.292,119.708-3.094,15.551-11.393,30.06-7.687,46.194,4.359,18.979,20.172,33.766,25.087,53.229a476.787,476.787,0,0,1,14.354,104.228l-.5-4.963" transform="translate(-50.449 -51.246)"/>
    <path id="_Path_27" data-name="&lt;Path&gt;" class="cls-1" d="M502.988,387.95c-2.557,12.155-31.453,76.552-34.01,88.707-2.362,11.225-4.821,22.7-10.992,32.531-3.673,5.852-8.553,10.939-12.481,16.639-10.678,15.494-13.758,34.827-12.305,53.293s7.112,36.368,12.737,54.1" transform="translate(-50.449 -51.246)"/>
    <path id="_Path_28" data-name="&lt;Path&gt;" class="cls-1" d="M432.089,508.441c-18.483,21.641-35.1,63.652-29.751,91.049,3.913,20.054,14.351,38.339,24.642,56.242" transform="translate(-50.449 -51.246)"/>
  </g>
  <path class="cls-1" d="M377,320s43-7,52,0" transform="translate(-50.449 -51.246)"/>
  <path class="cls-3" d="M383,342.835s13,18.5,45-1" transform="translate(-50.449 -51.246)"/>
</svg>
